<?xml version="1.0" encoding="UTF-8"?><svg xmlns="http://www.w3.org/2000/svg" xmlns:xlink="http://www.w3.org/1999/xlink" fill-opacity="1" color-rendering="auto" color-interpolation="auto" text-rendering="auto" stroke="black" stroke-linecap="square" width="670" stroke-miterlimit="10" shape-rendering="auto" stroke-opacity="1" fill="black" stroke-dasharray="none" font-weight="normal" stroke-width="1" height="236" font-family="'Dialog'" font-style="normal" stroke-linejoin="miter" font-size="12px" stroke-dashoffset="0" image-rendering="auto">
  <!--Generated by ySVG 2.5-->
  <defs id="genericDefs"/>
  <g>
    <defs id="defs1">
      <clipPath clipPathUnits="userSpaceOnUse" id="clipPath1">
        <path d="M0 0 L670 0 L670 236 L0 236 L0 0 Z"/>
      </clipPath>
      <clipPath clipPathUnits="userSpaceOnUse" id="clipPath2">
        <path d="M386 245 L1056 245 L1056 481 L386 481 L386 245 Z"/>
      </clipPath>
      <clipPath clipPathUnits="userSpaceOnUse" id="clipPath3">
        <path d="M-21506.1289 -2019.8353 L4585.3682 -2019.8353 L4585.3682 7170.6021 L-21506.1289 7170.6021 L-21506.1289 -2019.8353 Z"/>
      </clipPath>
    </defs>
    <g fill="white" text-rendering="geometricPrecision" shape-rendering="geometricPrecision" transform="translate(-386,-245)" stroke="white">
      <rect x="386" width="670" height="236" y="245" clip-path="url(#clipPath2)" stroke="none"/>
    </g>
    <g fill="rgb(245,245,245)" text-rendering="geometricPrecision" shape-rendering="geometricPrecision" transform="matrix(1,0,0,1,-386,-245)" stroke="rgb(245,245,245)">
      <rect x="401" y="342.5391" clip-path="url(#clipPath2)" width="386" rx="4" ry="4" height="113.4609" stroke="none"/>
      <rect x="401" y="342.5391" clip-path="url(#clipPath2)" fill="rgb(235,235,235)" width="386" height="21.4609" stroke="none"/>
    </g>
    <g font-size="15px" stroke-linecap="butt" transform="matrix(1,0,0,1,-386,-245)" text-rendering="geometricPrecision" font-family="sans-serif" shape-rendering="geometricPrecision" stroke-miterlimit="1.45">
      <text x="632.8394" xml:space="preserve" y="358.4624" clip-path="url(#clipPath2)" stroke="none">heart-beat-producer</text>
      <rect x="401" y="342.5391" clip-path="url(#clipPath2)" fill="none" width="386" stroke-dasharray="6,2" rx="4" ry="4" height="113.4609"/>
    </g>
    <g fill="rgb(38,109,176)" text-rendering="geometricPrecision" shape-rendering="geometricPrecision" transform="matrix(1,0,0,1,-386,-245)" stroke="rgb(38,109,176)">
      <rect x="416" y="379" clip-path="url(#clipPath2)" width="163" rx="4" ry="4" height="62" stroke="none"/>
    </g>
    <g text-rendering="geometricPrecision" stroke-miterlimit="1.45" shape-rendering="geometricPrecision" transform="matrix(1,0,0,1,-386,-245)" stroke-linecap="butt">
      <rect x="416" y="379" clip-path="url(#clipPath2)" fill="none" width="163" rx="4" ry="4" height="62"/>
    </g>
    <g stroke-linecap="butt" transform="matrix(1,0,0,1,-386,-245)" fill="white" text-rendering="geometricPrecision" font-family="sans-serif" shape-rendering="geometricPrecision" stroke="white" font-weight="bold" stroke-miterlimit="1.45">
      <text x="435.748" xml:space="preserve" y="414.1543" clip-path="url(#clipPath2)" stroke="none">POST /heart-beats</text>
    </g>
    <g fill="rgb(38,109,176)" text-rendering="geometricPrecision" shape-rendering="geometricPrecision" transform="matrix(1,0,0,1,-386,-245)" stroke="rgb(38,109,176)">
      <rect x="609" y="379" clip-path="url(#clipPath2)" width="163" rx="4" ry="4" height="62" stroke="none"/>
    </g>
    <g text-rendering="geometricPrecision" stroke-miterlimit="1.45" shape-rendering="geometricPrecision" transform="matrix(1,0,0,1,-386,-245)" stroke-linecap="butt">
      <rect x="609" y="379" clip-path="url(#clipPath2)" fill="none" width="163" rx="4" ry="4" height="62"/>
    </g>
    <g stroke-linecap="butt" transform="matrix(1,0,0,1,-386,-245)" fill="white" text-rendering="geometricPrecision" font-family="sans-serif" shape-rendering="geometricPrecision" stroke="white" font-weight="bold" stroke-miterlimit="1.45">
      <text x="639.1953" xml:space="preserve" y="414.1543" clip-path="url(#clipPath2)" stroke="none">kafka producer</text>
    </g>
    <g text-rendering="geometricPrecision" stroke-miterlimit="1.45" shape-rendering="geometricPrecision" transform="matrix(1,0,0,1,-386,-245)" stroke-linecap="butt">
      <path fill="none" d="M578.969 410 L601.0029 410" clip-path="url(#clipPath2)"/>
      <path d="M609.0029 410 L597.0029 405 L600.0029 410 L597.0029 415 Z" clip-path="url(#clipPath2)" stroke="none"/>
    </g>
    <g fill="rgb(245,245,245)" text-rendering="geometricPrecision" shape-rendering="geometricPrecision" transform="matrix(1,0,0,1,-386,-245)" stroke="rgb(245,245,245)">
      <rect x="875" y="260.4158" clip-path="url(#clipPath2)" width="166" rx="4" ry="4" height="205.0842" stroke="none"/>
      <rect x="875" y="260.4158" clip-path="url(#clipPath2)" fill="rgb(235,235,235)" width="166" height="21.4609" stroke="none"/>
    </g>
    <g font-size="15px" stroke-linecap="butt" transform="matrix(1,0,0,1,-386,-245)" text-rendering="geometricPrecision" font-family="sans-serif" shape-rendering="geometricPrecision" stroke-miterlimit="1.45">
      <text x="996.8125" xml:space="preserve" y="276.3391" clip-path="url(#clipPath2)" stroke="none">Kafka</text>
      <rect x="875" y="260.4158" clip-path="url(#clipPath2)" fill="none" width="166" stroke-dasharray="6,2" rx="4" ry="4" height="205.0842"/>
    </g>
    <g text-rendering="geometricPrecision" shape-rendering="geometricPrecision" transform="matrix(0.0257,0,0,0.0257,552.253,51.8671)">
      <g clip-path="url(#clipPath3)">
        <svg opacity="1" writing-mode="lr-tb" stop-color="rgb(0, 0, 0)" shape-rendering="auto" glyph-orientation-horizontal="0deg" color-profile="auto" lighting-color="rgb(255, 255, 255)" color="rgb(0, 0, 0)" font-weight="400" alignment-baseline="auto" font-style="normal" color-interpolation-filters="linearrgb" text-anchor="start" stroke-linecap="butt" color-interpolation="srgb" font-variant="normal" word-spacing="normal" fill-opacity="1" text-rendering="auto" clip-path="none" text-decoration="none" letter-spacing="normal" viewBox="0 0 256 416" glyph-orientation-vertical="auto" display="inline" font-size-adjust="none" fill="rgb(0, 0, 0)" overflow="hidden" font-stretch="normal" stroke-dasharray="none" stroke-miterlimit="4" stop-opacity="1" color-rendering="auto" font-size="12" mask="none" direction="ltr" baseline-shift="baseline" pointer-events="visiblepainted" enable-background="accumulate" fill-rule="nonzero" image-rendering="auto" stroke-dashoffset="0" width="1538" marker-end="none" clip="auto" cursor="auto" stroke="none" filter="none" visibility="visible" kerning="auto" stroke-width="1" font-family="&quot;Arial&quot;,&quot;Helvetica&quot;,sans-serif" preserveAspectRatio="xMidYMid" flood-opacity="1" clip-rule="nonzero" src="none" height="2500" unicode-bidi="normal" stroke-linejoin="miter" stroke-opacity="1" flood-color="rgb(0, 0, 0)" dominant-baseline="auto" marker-start="none" marker-mid="none">
          <path d="M201.816 230.216c-16.186 0-30.697 7.171-40.634 18.461l-25.463-18.026c2.703-7.442 4.255-15.433 4.255-23.797 0-8.219-1.498-16.076-4.112-23.408l25.406-17.835c9.936 11.233 24.409 18.365 40.548 18.365 29.875 0 54.184-24.305 54.184-54.184 0-29.879-24.309-54.184-54.184-54.184-29.875 0-54.184 24.305-54.184 54.184 0 5.348.808 10.505 2.258 15.389l-25.423 17.844c-10.62-13.175-25.911-22.374-43.333-25.182v-30.64c24.544-5.155 43.037-26.962 43.037-53.019C124.171 24.305 99.862 0 69.987 0 40.112 0 15.803 24.305 15.803 54.184c0 25.708 18.014 47.246 42.067 52.769v31.038C25.044 143.753 0 172.401 0 206.854c0 34.621 25.292 63.374 58.355 68.94v32.774c-24.299 5.341-42.552 27.011-42.552 52.894 0 29.879 24.309 54.184 54.184 54.184 29.875 0 54.184-24.305 54.184-54.184 0-25.883-18.253-47.553-42.552-52.894v-32.775a69.965 69.965 0 0 0 42.6-24.776l25.633 18.143c-1.423 4.84-2.22 9.946-2.22 15.24 0 29.879 24.309 54.184 54.184 54.184 29.875 0 54.184-24.305 54.184-54.184 0-29.879-24.309-54.184-54.184-54.184zm0-126.695c14.487 0 26.27 11.788 26.27 26.271s-11.783 26.27-26.27 26.27-26.27-11.787-26.27-26.27c0-14.483 11.783-26.271 26.27-26.271zm-158.1-49.337c0-14.483 11.784-26.27 26.271-26.27s26.27 11.787 26.27 26.27c0 14.483-11.783 26.27-26.27 26.27s-26.271-11.787-26.271-26.27zm52.541 307.278c0 14.483-11.783 26.27-26.27 26.27s-26.271-11.787-26.271-26.27c0-14.483 11.784-26.27 26.271-26.27s26.27 11.787 26.27 26.27zm-26.272-117.97c-20.205 0-36.642-16.434-36.642-36.638 0-20.205 16.437-36.642 36.642-36.642 20.204 0 36.641 16.437 36.641 36.642 0 20.204-16.437 36.638-36.641 36.638zm131.831 67.179c-14.487 0-26.27-11.788-26.27-26.271s11.783-26.27 26.27-26.27 26.27 11.787 26.27 26.27c0 14.483-11.783 26.271-26.27 26.271z"/>
          	
          <metadata>
		
    </metadata>
        </svg>
      </g>
    </g>
    <g fill="rgb(38,109,176)" text-rendering="geometricPrecision" shape-rendering="geometricPrecision" transform="matrix(1,0,0,1,-386,-245)" stroke="rgb(38,109,176)">
      <rect x="890" y="379" clip-path="url(#clipPath2)" width="136" rx="4" ry="4" height="62" stroke="none"/>
    </g>
    <g text-rendering="geometricPrecision" stroke-miterlimit="1.45" shape-rendering="geometricPrecision" transform="matrix(1,0,0,1,-386,-245)" stroke-linecap="butt">
      <rect x="890" y="379" clip-path="url(#clipPath2)" fill="none" width="136" rx="4" ry="4" height="62"/>
    </g>
    <g stroke-linecap="butt" transform="matrix(1,0,0,1,-386,-245)" fill="white" text-rendering="geometricPrecision" font-family="sans-serif" shape-rendering="geometricPrecision" stroke="white" font-weight="bold" stroke-miterlimit="1.45">
      <text x="918.4404" xml:space="preserve" y="407.1699" clip-path="url(#clipPath2)" stroke="none">heart-beats</text>
      <text x="941.1016" xml:space="preserve" y="421.1387" clip-path="url(#clipPath2)" stroke="none">topic</text>
    </g>
    <g text-rendering="geometricPrecision" stroke-miterlimit="1.45" shape-rendering="geometricPrecision" transform="matrix(1,0,0,1,-386,-245)" stroke-linecap="butt">
      <path fill="none" d="M771.9713 410 L882.0105 410" clip-path="url(#clipPath2)"/>
      <path d="M890.0105 410 L878.0105 405 L881.0105 410 L878.0105 415 Z" clip-path="url(#clipPath2)" stroke="none"/>
    </g>
  </g>
</svg>
